<svg xmlns="http://www.w3.org/2000/svg" xmlns:xlink="http://www.w3.org/1999/xlink" id="Layer_1" x="0px" y="0px" viewBox="0 0 402 161" style="enable-background:new 0 0 402 161;" xml:space="preserve">
<style type="text/css">
	.st0{fill:#FFFFFF;stroke:#231F20;stroke-width:3;stroke-miterlimit:10;}
	.st1{fill:#7AD67E;}
	.st2{fill:#231F20;}
</style>
<g id="Layer_2_1_">
	<path class="st0" d="M81.4,8.3h239.2c39.8,0,72.1,32.3,72.1,72.1v0c0,39.8-32.3,72.1-72.1,72.1H81.4c-39.8,0-72.1-32.3-72.1-72.1v0   C9.3,40.6,41.6,8.3,81.4,8.3z"></path>
	<path class="st1" d="M146.6,54.6v-3.1c0-1.3,1.1-2.4,2.4-2.4h46.8c2.2,0,4,1.8,4,4l0,0c0,2.2-1.8,4-4,4H149   C147.7,57.1,146.6,56,146.6,54.6C146.5,54.7,146.5,54.6,146.6,54.6z"></path>
	<path class="st1" d="M146.6,109.5v-3.1c0-1.3,1.1-2.4,2.4-2.4c0,0,0,0,0,0h46.8c2.2,0,4,1.8,4,4l0,0c0,2.2-1.8,4-4,4H149   c-1.3,0-2.4-1.1-2.5-2.4C146.5,109.5,146.5,109.5,146.6,109.5z"></path>
	<path class="st1" d="M195.8,85.1h-46.8c-1.3,0-2.4-1.1-2.4-2.4l0,0v-3.2c0-1.3,1.1-2.4,2.4-2.4l0,0h46.8c2.2,0,4,1.8,4,4l0,0   C199.7,83.4,197.9,85.1,195.8,85.1z"></path>
	<path class="st2" d="M105,51l15.4,58.8c0.2,0.8-0.3,1.6-1,1.8c-0.1,0-0.3,0-0.4,0h-5.3c-0.7,0-1.2-0.4-1.4-1.1l-8.9-34.3   c-0.2-0.8-1-1.2-1.8-1c-0.4,0.1-0.8,0.4-1,0.8l-14.7,34.8c-0.3,0.7-1.2,1.1-1.9,0.8c-0.4-0.1-0.6-0.4-0.8-0.8L68.4,75.7   c-0.3-0.7-1.2-1.1-1.9-0.8c-0.4,0.2-0.7,0.5-0.8,1l-9.1,34.7c-0.2,0.6-0.7,1.1-1.4,1.1H50c-0.8,0-1.5-0.6-1.5-1.4   c0-0.1,0-0.3,0.1-0.4L64,51c0.2-0.8,1-1.2,1.8-1c0.4,0.1,0.8,0.4,1,0.9L83.2,90c0.3,0.7,1.2,1.1,1.9,0.8c0.4-0.1,0.6-0.4,0.8-0.8   l16.3-39.2c0.3-0.7,1.2-1.1,1.9-0.7C104.6,50.3,104.9,50.6,105,51z"></path>
	<path class="st2" d="M238.5,49.3h3.4c1.4,0,2.5,1.1,2.5,2.5v48.8c0,1.4,1.1,2.5,2.5,2.5h15.2c1.4,0,2.5,1.1,2.5,2.5c0,0,0,0,0,0   v3.3c0,1.4-1.1,2.5-2.5,2.5h-23.6c-1.4,0-2.5-1.1-2.5-2.5V51.9C236,50.5,237.1,49.4,238.5,49.3z"></path>
	<path class="st2" d="M326.4,51.2l26.2,57.7c0.5,1,0,2.2-1,2.7c-0.3,0.1-0.6,0.2-0.9,0.2h-4.5c-0.8,0-1.5-0.5-1.8-1.2L338.3,97   c-0.3-0.7-1-1.2-1.8-1.2h-23.8c-0.8,0-1.5,0.5-1.8,1.2l-6.1,13.5c-0.3,0.7-1,1.2-1.8,1.2h-4.4c-1.1,0-2-0.9-2-2   c0-0.3,0.1-0.6,0.2-0.8l26-57.7c0.4-1,1.6-1.5,2.6-1.1C325.8,50.3,326.2,50.7,326.4,51.2z M322.7,70.6l-6.9,15.3   c-0.5,1,0,2.2,1,2.6c0.3,0.1,0.6,0.2,0.8,0.2h13.8c1.1,0,2-0.9,2-2c0-0.3-0.1-0.6-0.2-0.8l-6.9-15.3c-0.4-1-1.6-1.5-2.6-1   C323.3,69.8,322.9,70.1,322.7,70.6z"></path>
</g>
</svg>