<svg xmlns="http://www.w3.org/2000/svg" xmlns:xlink="http://www.w3.org/1999/xlink" id="Layer_1" x="0px" y="0px" viewBox="0 0 100 100" style="enable-background:new 0 0 100 100;" xml:space="preserve">
<style type="text/css">
	.st0{fill:#5A94D6;}
</style>
<g>
	<path class="st0" d="M23.4,24.1V21c0-1.3,1.1-2.4,2.4-2.4h46.8c2.2,0,4,1.8,4,4l0,0c0,2.2-1.8,4-4,4H25.8   C24.5,26.6,23.4,25.5,23.4,24.1C23.4,24.1,23.4,24.1,23.4,24.1z"></path>
	<path class="st0" d="M23.4,79v-3.1c0-1.3,1.1-2.4,2.4-2.4c0,0,0,0,0,0h46.8c2.2,0,4,1.8,4,4l0,0c0,2.2-1.8,4-4,4H25.8   C24.5,81.4,23.4,80.3,23.4,79C23.4,79,23.4,79,23.4,79z"></path>
	<path class="st0" d="M72.6,54.6H25.8c-1.3,0-2.4-1.1-2.4-2.4c0,0,0,0,0,0V49c0-1.3,1.1-2.4,2.4-2.4h46.8c2.2,0,4,1.8,4,4l0,0   C76.6,52.8,74.8,54.6,72.6,54.6z"></path>
</g>
</svg>